<svg xmlns="http://www.w3.org/2000/svg" xmlns:xlink="http://www.w3.org/1999/xlink" width="213" zoomAndPan="magnify" viewBox="0 0 159.75 40.499999" height="54" preserveAspectRatio="xMidYMid meet" version="1.0"><defs><clipPath id="4c2e322087"><path d="M 18 6.515625 L 26 6.515625 L 26 33.1875 L 18 33.1875 Z M 18 6.515625 " clip-rule="nonzero"/></clipPath><clipPath id="5c55d39118"><path d="M 51 6.515625 L 59 6.515625 L 59 33.1875 L 51 33.1875 Z M 51 6.515625 " clip-rule="nonzero"/></clipPath></defs><path fill="#000000" d="M 13.039062 16.457031 L 7.34375 16.457031 L 7.34375 26.46875 L 10.355469 26.46875 L 10.355469 28.148438 L 2.328125 28.148438 L 2.328125 26.46875 L 5.355469 26.46875 L 5.355469 16.457031 L 2.328125 16.457031 L 2.328125 14.777344 L 5.355469 14.777344 C 5.355469 12.953125 5.828125 11.554688 6.785156 10.589844 C 7.734375 9.617188 9.167969 9.125 11.089844 9.125 C 11.539062 9.125 11.917969 9.136719 12.226562 9.164062 C 12.546875 9.191406 12.816406 9.21875 13.039062 9.257812 L 13.039062 10.9375 C 12.753906 10.898438 12.460938 10.871094 12.152344 10.839844 C 11.851562 10.816406 11.5 10.800781 11.089844 10.800781 C 9.839844 10.800781 8.898438 11.125 8.269531 11.765625 C 7.652344 12.398438 7.34375 13.402344 7.34375 14.777344 L 13.039062 14.777344 Z M 13.039062 16.457031 " fill-opacity="1" fill-rule="nonzero"/><g clip-path="url(#4c2e322087)"><path fill="#000000" d="M 24.78125 33.472656 C 23.765625 32.660156 22.855469 31.746094 22.0625 30.730469 C 21.273438 29.714844 20.613281 28.628906 20.074219 27.472656 C 19.53125 26.3125 19.117188 25.109375 18.839844 23.84375 C 18.554688 22.585938 18.414062 21.3125 18.414062 20.023438 C 18.414062 18.726562 18.554688 17.453125 18.839844 16.203125 C 19.117188 14.945312 19.53125 13.746094 20.074219 12.597656 C 20.613281 11.4375 21.273438 10.355469 22.0625 9.335938 C 22.855469 8.308594 23.765625 7.398438 24.78125 6.597656 L 25.824219 7.890625 C 24.90625 8.613281 24.097656 9.433594 23.394531 10.359375 C 22.683594 11.273438 22.082031 12.257812 21.578125 13.308594 C 21.085938 14.351562 20.714844 15.445312 20.460938 16.589844 C 20.214844 17.722656 20.09375 18.867188 20.09375 20.023438 C 20.09375 21.195312 20.214844 22.347656 20.460938 23.476562 C 20.714844 24.609375 21.085938 25.695312 21.578125 26.738281 C 22.082031 27.769531 22.679688 28.746094 23.375 29.671875 C 24.078125 30.605469 24.898438 31.445312 25.824219 32.179688 Z M 24.78125 33.472656 " fill-opacity="1" fill-rule="nonzero"/></g><path fill="#000000" d="M 44.621094 18.789062 L 39.699219 21.433594 L 44.621094 24.152344 L 43.828125 25.503906 L 39.0625 22.589844 L 39.253906 28.128906 L 37.59375 28.128906 L 37.808594 22.589844 L 33.039062 25.503906 L 32.25 24.152344 L 37.152344 21.433594 L 32.25 18.789062 L 33.039062 17.417969 L 37.808594 20.351562 L 37.59375 14.777344 L 39.253906 14.777344 L 39.0625 20.351562 L 43.828125 17.417969 Z M 44.621094 18.789062 " fill-opacity="1" fill-rule="nonzero"/><g clip-path="url(#5c55d39118)"><path fill="#000000" d="M 58.515625 20.042969 C 58.515625 21.332031 58.367188 22.605469 58.070312 23.863281 C 57.785156 25.113281 57.367188 26.3125 56.816406 27.472656 C 56.277344 28.628906 55.605469 29.714844 54.808594 30.730469 C 54.023438 31.746094 53.121094 32.660156 52.109375 33.472656 L 51.066406 32.179688 C 51.976562 31.445312 52.789062 30.617188 53.496094 29.691406 C 54.214844 28.773438 54.828125 27.800781 55.332031 26.757812 C 55.832031 25.707031 56.203125 24.609375 56.449219 23.476562 C 56.707031 22.347656 56.835938 21.203125 56.835938 20.042969 C 56.835938 18.886719 56.707031 17.738281 56.449219 16.589844 C 56.203125 15.445312 55.832031 14.351562 55.332031 13.308594 C 54.828125 12.257812 54.214844 11.273438 53.496094 10.359375 C 52.789062 9.433594 51.976562 8.613281 51.066406 7.890625 L 52.109375 6.597656 C 53.121094 7.398438 54.023438 8.308594 54.808594 9.335938 C 55.605469 10.355469 56.277344 11.4375 56.816406 12.597656 C 57.367188 13.746094 57.785156 14.949219 58.070312 16.222656 C 58.367188 17.488281 58.515625 18.761719 58.515625 20.042969 Z M 58.515625 20.042969 " fill-opacity="1" fill-rule="nonzero"/></g><path fill="#000000" d="M 77.195312 18.984375 L 63.820312 18.984375 L 63.820312 17.285156 L 77.195312 17.285156 Z M 77.195312 25.292969 L 63.820312 25.292969 L 63.820312 23.613281 L 77.195312 23.613281 Z M 77.195312 25.292969 " fill-opacity="1" fill-rule="nonzero"/><path fill="#000000" d="M 92.515625 11.109375 L 82.519531 11.109375 L 82.519531 17.804688 L 89.890625 17.804688 L 89.890625 19.484375 L 82.519531 19.484375 L 82.519531 28.148438 L 80.550781 28.148438 L 80.550781 9.433594 L 92.515625 9.433594 Z M 92.515625 11.109375 " fill-opacity="1" fill-rule="nonzero"/><path fill="#000000" d="M 95.875 24.539062 C 95.875 23.691406 96.078125 22.984375 96.492188 22.417969 C 96.917969 21.851562 97.464844 21.410156 98.152344 21.085938 C 98.832031 20.753906 99.617188 20.515625 100.507812 20.371094 C 101.394531 20.21875 102.292969 20.140625 103.207031 20.140625 C 103.566406 20.140625 103.882812 20.148438 104.152344 20.160156 C 104.433594 20.160156 104.703125 20.175781 104.964844 20.199219 C 105.21875 20.210938 105.476562 20.230469 105.738281 20.257812 C 105.992188 20.285156 106.277344 20.3125 106.585938 20.351562 L 106.585938 19.40625 C 106.585938 18.75 106.441406 18.21875 106.160156 17.804688 C 105.875 17.382812 105.527344 17.046875 105.117188 16.800781 C 104.703125 16.5625 104.273438 16.386719 103.824219 16.28125 C 103.371094 16.179688 102.996094 16.128906 102.6875 16.128906 C 101.683594 16.128906 100.757812 16.261719 99.90625 16.53125 C 99.066406 16.800781 98.292969 17.164062 97.570312 17.613281 L 96.683594 16.128906 C 97.480469 15.640625 98.382812 15.238281 99.386719 14.929688 C 100.390625 14.621094 101.492188 14.46875 102.6875 14.46875 C 103.40625 14.46875 104.113281 14.5625 104.808594 14.757812 C 105.515625 14.941406 106.148438 15.21875 106.703125 15.605469 C 107.265625 15.992188 107.714844 16.503906 108.050781 17.128906 C 108.386719 17.761719 108.554688 18.519531 108.554688 19.40625 L 108.554688 28.148438 L 106.585938 28.148438 L 106.585938 25.910156 C 106.238281 26.347656 105.84375 26.730469 105.410156 27.046875 C 104.96875 27.371094 104.511719 27.636719 104.039062 27.839844 C 103.558594 28.046875 103.082031 28.195312 102.609375 28.300781 C 102.132812 28.417969 101.671875 28.476562 101.238281 28.476562 C 99.472656 28.476562 98.136719 28.140625 97.226562 27.472656 C 96.324219 26.792969 95.875 25.8125 95.875 24.539062 Z M 101.238281 26.796875 C 102.058594 26.796875 102.800781 26.675781 103.457031 26.429688 C 104.113281 26.1875 104.664062 25.882812 105.117188 25.523438 C 105.582031 25.164062 105.9375 24.78125 106.199219 24.367188 C 106.457031 23.957031 106.585938 23.582031 106.585938 23.246094 L 106.585938 21.972656 C 105.9375 21.886719 105.320312 21.839844 104.734375 21.839844 C 104.140625 21.828125 103.632812 21.820312 103.207031 21.820312 C 102.5 21.820312 101.820312 21.867188 101.164062 21.953125 C 100.507812 22.046875 99.933594 22.199219 99.445312 22.417969 C 98.953125 22.636719 98.5625 22.917969 98.265625 23.265625 C 97.96875 23.601562 97.824219 24.027344 97.824219 24.539062 C 97.824219 25.109375 98.097656 25.628906 98.652344 26.101562 C 99.203125 26.566406 100.066406 26.796875 101.238281 26.796875 Z M 101.238281 26.796875 " fill-opacity="1" fill-rule="nonzero"/><path fill="#000000" d="M 119.9375 12.113281 L 117.273438 12.113281 L 117.273438 9.433594 L 119.9375 9.433594 Z M 122.621094 28.148438 L 114.59375 28.148438 L 114.59375 26.46875 L 117.621094 26.46875 L 117.621094 16.457031 L 114.59375 16.457031 L 114.59375 14.777344 L 119.609375 14.777344 L 119.609375 26.46875 L 122.621094 26.46875 Z M 122.621094 28.148438 " fill-opacity="1" fill-rule="nonzero"/><path fill="#000000" d="M 141.476562 23.882812 C 141.320312 25.300781 140.765625 26.421875 139.816406 27.238281 C 138.859375 28.066406 137.679688 28.476562 136.265625 28.476562 C 135.480469 28.476562 134.761719 28.34375 134.105469 28.089844 C 133.457031 27.832031 132.90625 27.480469 132.445312 27.027344 C 131.980469 26.566406 131.617188 26.015625 131.363281 25.367188 C 131.117188 24.710938 130.996094 24.007812 130.996094 23.246094 L 130.996094 16.457031 L 127.964844 16.457031 L 127.964844 14.777344 L 130.996094 14.777344 L 130.996094 9.433594 L 132.964844 9.433594 L 132.964844 14.777344 L 138.660156 14.777344 L 138.660156 16.457031 L 132.964844 16.457031 L 132.964844 23.246094 C 132.964844 23.738281 133.042969 24.203125 133.195312 24.636719 C 133.351562 25.058594 133.566406 25.4375 133.851562 25.753906 C 134.132812 26.078125 134.476562 26.332031 134.875 26.527344 C 135.269531 26.710938 135.734375 26.796875 136.265625 26.796875 C 137.230469 26.796875 138.039062 26.496094 138.695312 25.890625 C 139.351562 25.285156 139.730469 24.5 139.835938 23.535156 Z M 141.476562 23.882812 " fill-opacity="1" fill-rule="nonzero"/><path fill="#000000" d="M 156.664062 28.148438 L 154.695312 28.148438 L 154.695312 19.910156 C 154.695312 18.710938 154.429688 17.785156 153.902344 17.128906 C 153.386719 16.464844 152.550781 16.128906 151.394531 16.128906 C 150.671875 16.128906 150.015625 16.296875 149.425781 16.628906 C 148.847656 16.964844 148.347656 17.414062 147.9375 17.980469 C 147.523438 18.535156 147.210938 19.171875 146.992188 19.890625 C 146.773438 20.613281 146.664062 21.367188 146.664062 22.148438 L 146.664062 28.148438 L 144.695312 28.148438 L 144.695312 9.433594 L 146.664062 9.433594 L 146.664062 18.132812 C 147.617188 15.691406 149.308594 14.46875 151.742188 14.46875 C 155.023438 14.46875 156.664062 16.28125 156.664062 19.910156 Z M 156.664062 28.148438 " fill-opacity="1" fill-rule="nonzero"/></svg>
