{
	"asset":{
		"generator":"Khronos glTF Blender I/O v4.1.62",
		"version":"2.0"
	},
	"scene":0,
	"scenes":[
		{
			"name":"Scene",
			"nodes":[
				0
			]
		}
	],
	"nodes":[
		{
			"mesh":0,
			"name":"Curve.002",
			"rotation":[
				0.3681735098361969,
				0,
				0,
				0.9297571182250977
			],
			"scale":[
				2.2465829849243164,
				2.2465827465057373,
				2.2465827465057373
			],
			"translation":[
				-0.015030675567686558,
				0.41159340739250183,
				-0.03626127541065216
			]
		}
	],
	"materials":[
		{
			"doubleSided":true,
			"name":"Material",
			"pbrMetallicRoughness":{
				"baseColorFactor":[
					0,
					0,
					0,
					1
				],
				"metallicFactor":0,
				"roughnessFactor":0.5
			}
		}
	],
	"meshes":[
		{
			"name":"Curve.002",
			"primitives":[
				{
					"attributes":{
						"POSITION":0,
						"NORMAL":1,
						"TEXCOORD_0":2
					},
					"indices":3,
					"material":0
				}
			]
		}
	],
	"accessors":[
		{
			"bufferView":0,
			"componentType":5126,
			"count":20868,
			"max":[
				0.10342694073915482,
				0.019999824464321136,
				0.10414707660675049
			],
			"min":[
				-0.10341702401638031,
				-0.020000047981739044,
				-0.10396401584148407
			],
			"type":"VEC3"
		},
		{
			"bufferView":1,
			"componentType":5126,
			"count":20868,
			"type":"VEC3"
		},
		{
			"bufferView":2,
			"componentType":5126,
			"count":20868,
			"type":"VEC2"
		},
		{
			"bufferView":3,
			"componentType":5123,
			"count":31572,
			"type":"SCALAR"
		}
	],
	"bufferViews":[
		{
			"buffer":0,
			"byteLength":250416,
			"byteOffset":0,
			"target":34962
		},
		{
			"buffer":0,
			"byteLength":250416,
			"byteOffset":250416,
			"target":34962
		},
		{
			"buffer":0,
			"byteLength":166944,
			"byteOffset":500832,
			"target":34962
		},
		{
			"buffer":0,
			"byteLength":63144,
			"byteOffset":667776,
			"target":34963
		}
	],
	"buffers":[
		{
			"byteLength":730920,
			"uri":"sunflower.bin"
		}
	]
}

